<svg width="60" height="60" viewBox="0 0 60 60" fill="none" xmlns="http://www.w3.org/2000/svg">
<path d="M30 56.875C15.175 56.875 3.125 44.825 3.125 30C3.125 15.175 15.175 3.125 30 3.125C44.825 3.125 56.875 15.175 56.875 30C56.875 44.825 44.825 56.875 30 56.875ZM30 6.875C17.25 6.875 6.875 17.25 6.875 30C6.875 42.75 17.25 53.125 30 53.125C42.75 53.125 53.125 42.75 53.125 30C53.125 17.25 42.75 6.875 30 6.875Z" fill="#BBD8EB"/>
<path d="M40 31.875H20C18.975 31.875 18.125 31.025 18.125 30C18.125 28.975 18.975 28.125 20 28.125H40C41.025 28.125 41.875 28.975 41.875 30C41.875 31.025 41.025 31.875 40 31.875Z" fill="#BBD8EB"/>
<path d="M30 41.875C28.975 41.875 28.125 41.025 28.125 40V20C28.125 18.975 28.975 18.125 30 18.125C31.025 18.125 31.875 18.975 31.875 20V40C31.875 41.025 31.025 41.875 30 41.875Z" fill="#BBD8EB"/>
</svg>
