<svg width="65" height="52" viewBox="0 0 65 52" fill="none" xmlns="http://www.w3.org/2000/svg">
<g filter="url(#filter0_d_222_1820)">
<rect x="4" width="57" height="44" rx="20" fill="#D4776A"/>
<path d="M37.19 12H28.81C25.17 12 23 14.17 23 17.81V26.18C23 29.83 25.17 32 28.81 32H37.18C40.82 32 42.99 29.83 42.99 26.19V17.81C43 14.17 40.83 12 37.19 12ZM36.36 24.3C36.65 24.59 36.65 25.07 36.36 25.36C36.21 25.51 36.02 25.58 35.83 25.58C35.64 25.58 35.45 25.51 35.3 25.36L33 23.06L30.7 25.36C30.55 25.51 30.36 25.58 30.17 25.58C29.98 25.58 29.79 25.51 29.64 25.36C29.35 25.07 29.35 24.59 29.64 24.3L31.94 22L29.64 19.7C29.35 19.41 29.35 18.93 29.64 18.64C29.93 18.35 30.41 18.35 30.7 18.64L33 20.94L35.3 18.64C35.59 18.35 36.07 18.35 36.36 18.64C36.65 18.93 36.65 19.41 36.36 19.7L34.06 22L36.36 24.3Z" fill="#0D1134"/>
</g>
<defs>
<filter id="filter0_d_222_1820" x="0" y="0" width="65" height="52" filterUnits="userSpaceOnUse" color-interpolation-filters="sRGB">
<feFlood flood-opacity="0" result="BackgroundImageFix"/>
<feColorMatrix in="SourceAlpha" type="matrix" values="0 0 0 0 0 0 0 0 0 0 0 0 0 0 0 0 0 0 127 0" result="hardAlpha"/>
<feOffset dy="4"/>
<feGaussianBlur stdDeviation="2"/>
<feComposite in2="hardAlpha" operator="out"/>
<feColorMatrix type="matrix" values="0 0 0 0 0 0 0 0 0 0 0 0 0 0 0 0 0 0 0.25 0"/>
<feBlend mode="normal" in2="BackgroundImageFix" result="effect1_dropShadow_222_1820"/>
<feBlend mode="normal" in="SourceGraphic" in2="effect1_dropShadow_222_1820" result="shape"/>
</filter>
</defs>
</svg>
