<svg width="24" height="24" viewBox="0 0 24 24" fill="none" xmlns="http://www.w3.org/2000/svg">
<path d="M12.7156 16.88H13.4156C14.5656 16.88 15.5056 15.94 15.5056 14.79V14.09H12.7156V16.88Z" fill="#171717"/>
<path d="M8.52563 14.79C8.52563 15.94 9.46563 16.88 10.6156 16.88H11.3156V14.09H8.52563V14.79Z" fill="#171717"/>
<path d="M8.52563 12V12.7H11.3156V9.91003H10.6156C9.46563 9.91003 8.52563 10.85 8.52563 12Z" fill="#171717"/>
<path d="M20.0456 6.82006L14.2956 2.79006C12.7256 1.69006 10.3256 1.75006 8.81563 2.92006L3.80562 6.83006C2.79562 7.61006 2.01562 9.21006 2.01562 10.4701V17.3701C2.01562 19.9201 4.08563 22.0001 6.62563 22.0001H17.3956C19.9356 22.0001 22.0056 19.9301 22.0056 17.3801V10.6001C22.0156 9.25006 21.1456 7.59006 20.0456 6.82006ZM16.8956 14.7901C16.8956 16.7101 15.3256 18.2801 13.4056 18.2801H10.6156C8.69563 18.2801 7.12563 16.7201 7.12563 14.7901V12.0001C7.12563 10.0801 8.69563 8.51006 10.6156 8.51006H13.4056C15.3256 8.51006 16.8956 10.0701 16.8956 12.0001V14.7901Z" fill="#171717"/>
<path d="M13.4156 9.91003H12.7156V12.7H15.5056V12C15.5056 10.85 14.5656 9.91003 13.4156 9.91003Z" fill="#171717"/>
</svg>
