<?xml version="1.0" encoding="UTF-8"?>
<!DOCTYPE svg PUBLIC "-//W3C//DTD SVG 1.1//EN" "http://www.w3.org/Graphics/SVG/1.1/DTD/svg11.dtd">
<svg xmlns="http://www.w3.org/2000/svg" version="1.1" width="793px" height="241px" style="shape-rendering:geometricPrecision; text-rendering:geometricPrecision; image-rendering:optimizeQuality; fill-rule:evenodd; clip-rule:evenodd" xmlns:xlink="http://www.w3.org/1999/xlink">
<g><path style="opacity:0.991" fill="#fefffe" d="M 546.5,4.5 C 614.984,0.369643 682.317,7.20298 748.5,25C 751.112,25.6395 753.446,26.8062 755.5,28.5C 755.192,29.3081 754.692,29.9747 754,30.5C 693.105,16.3306 632.105,15.9973 571,29.5C 547.59,20.8843 523.423,15.7177 498.5,14C 497.663,12.9887 497.33,11.8221 497.5,10.5C 513.899,7.90169 530.232,5.90169 546.5,4.5 Z"/></g>
<g><path style="opacity:0.986" fill="#fefffe" d="M 410.5,16.5 C 467.294,14.7587 521.461,25.7587 573,49.5C 607.011,38.7577 641.845,34.591 677.5,37C 714.139,39.0769 749.806,46.0769 784.5,58C 787.032,58.6122 787.865,60.1122 787,62.5C 728.013,47.0022 668.847,46.5022 609.5,61C 599.987,64.1711 590.487,67.3378 581,70.5C 517.883,37.0769 450.717,23.9103 379.5,31C 343.809,33.6368 309.475,41.8034 276.5,55.5C 275.833,55.3333 275.167,55.1667 274.5,55C 277.659,51.9177 281.325,49.5843 285.5,48C 325.275,29.4731 366.942,18.9731 410.5,16.5 Z"/></g>
<g><path style="opacity:0.982" fill="#fefffe" d="M 425.5,47.5 C 454.744,46.1829 482.744,51.3496 509.5,63C 499.607,65.0196 490.274,68.5196 481.5,73.5C 469.895,67.1304 457.562,62.6304 444.5,60C 431.111,57.7013 417.777,55.7013 404.5,54C 405.167,53.3333 405.833,52.6667 406.5,52C 412.89,50.1601 419.224,48.6601 425.5,47.5 Z"/></g>
<g><path style="opacity:0.96" fill="#fefffe" d="M 644.5,69.5 C 645.573,70.2506 645.74,71.2506 645,72.5C 631.587,93.2471 614.754,110.747 594.5,125C 591.5,126.5 588.5,128 585.5,129.5C 582.833,126.5 580.167,123.5 577.5,120.5C 594.578,108.924 609.244,94.7571 621.5,78C 629.161,74.8389 636.827,72.0056 644.5,69.5 Z"/></g>
<g><path style="opacity:0.989" fill="#fefffe" d="M 710.5,69.5 C 738.533,66.2333 762.699,74.2333 783,93.5C 787.615,100.908 786.782,107.741 780.5,114C 773.812,118.541 767.145,118.541 760.5,114C 739.941,97.2114 717.941,95.2114 694.5,108C 672.449,125.156 665.949,146.99 675,173.5C 684.816,195.164 701.65,206.498 725.5,207.5C 731.713,207.424 737.713,206.257 743.5,204C 751.114,200.033 758.447,195.7 765.5,191C 776.849,189.529 783.515,194.362 785.5,205.5C 784.825,208.691 783.658,211.691 782,214.5C 756.407,237.685 727.241,243.518 694.5,232C 654.715,212.609 637.215,180.776 642,136.5C 651.196,100.136 674.03,77.8028 710.5,69.5 Z"/></g>
<g><path style="opacity:0.997" fill="#fefffe" d="M 17.5,72.5 C 26.5915,71.9489 32.4248,75.9489 35,84.5C 35.4999,103.164 35.6666,121.83 35.5,140.5C 57.5,140.5 79.5,140.5 101.5,140.5C 101.333,121.83 101.5,103.164 102,84.5C 107.241,72.4202 115.574,69.7535 127,76.5C 129.146,79.1258 130.479,82.1258 131,85.5C 131.667,132.167 131.667,178.833 131,225.5C 127.527,235.23 120.693,238.73 110.5,236C 107.333,234.167 104.833,231.667 103,228.5C 101.562,208.88 101.062,189.213 101.5,169.5C 79.5,169.5 57.5,169.5 35.5,169.5C 35.9634,189.234 35.4634,208.901 34,228.5C 28.7723,236.557 21.6057,238.724 12.5,235C 9.89408,233.062 8.06075,230.562 7,227.5C 6.23753,179.833 5.9042,132.166 6,84.5C 8.01885,78.6498 11.8522,74.6498 17.5,72.5 Z"/></g>
<g><path style="opacity:0.991" fill="#fefffe" d="M 222.5,72.5 C 228.847,73.0888 233.68,76.0888 237,81.5C 258.853,127.38 280.519,173.38 302,219.5C 302.174,234.311 295.007,239.811 280.5,236C 278,234.833 276.167,233 275,230.5C 269.992,221.489 265.825,212.155 262.5,202.5C 237.811,201.542 213.311,201.209 189,201.5C 187.795,202.071 186.628,202.738 185.5,203.5C 181.606,212.289 177.439,220.955 173,229.5C 165.959,238.443 157.959,239.443 149,232.5C 145.299,227.221 144.632,221.555 147,215.5C 169.716,168.971 192.216,122.471 214.5,76C 217.158,74.522 219.825,73.3554 222.5,72.5 Z M 224.5,124.5 C 232.438,140.118 240.105,155.951 247.5,172C 232.156,172.833 216.822,172.666 201.5,171.5C 208.924,155.653 216.591,139.986 224.5,124.5 Z"/></g>
<g><path style="opacity:0.987" fill="#fefffe" d="M 291.5,72.5 C 297.932,71.347 303.432,73.0137 308,77.5C 327.787,117.073 347.62,156.74 367.5,196.5C 387.603,157.294 407.436,117.961 427,78.5C 434.645,70.8876 442.645,70.5543 451,77.5C 453.374,81.8935 454.041,86.5602 453,91.5C 429.047,137.74 405.381,184.073 382,230.5C 373.814,238.43 364.648,239.596 354.5,234C 352.3,231.766 350.467,229.266 349,226.5C 327.738,182.256 306.072,138.256 284,94.5C 280.056,84.932 282.556,77.5987 291.5,72.5 Z"/></g>
<g><path style="opacity:0.977" fill="#fefffe" d="M 526.5,79.5 C 544.449,78.5769 561.783,81.4103 578.5,88C 579.956,88.4226 580.456,89.2559 580,90.5C 575.312,94.6886 570.479,98.6886 565.5,102.5C 546.006,95.1753 526.339,94.6753 506.5,101C 477.981,114.534 465.481,137.034 469,168.5C 476.977,199.24 496.81,213.407 528.5,211C 549.897,206.199 561.23,192.866 562.5,171C 561.86,152.371 552.527,141.038 534.5,137C 521.631,135.351 512.131,140.184 506,151.5C 502.135,161.915 504.968,169.748 514.5,175C 526.337,177.156 531.837,172.323 531,160.5C 529.167,157.333 526.667,154.833 523.5,153C 532.43,150.729 537.93,154.229 540,163.5C 541.323,173.846 537.157,181.013 527.5,185C 509.267,188.634 497.767,181.467 493,163.5C 491.387,146.558 498.22,134.391 513.5,127C 540.035,118.617 559.535,126.784 572,151.5C 581.052,187.233 568.219,211.067 533.5,223C 494.97,228.152 469.47,212.319 457,175.5C 449.988,134.356 465.155,104.523 502.5,86C 510.463,83.1785 518.463,81.0118 526.5,79.5 Z"/></g>
<g><path style="opacity:0.976" fill="#fefffe" d="M 630.5,114.5 C 631.156,115.622 631.489,116.955 631.5,118.5C 630.354,128.374 629.354,138.208 628.5,148C 613.729,153.693 598.562,155.86 583,154.5C 582.689,152.444 582.189,150.444 581.5,148.5C 603.292,144.791 619.626,133.457 630.5,114.5 Z"/></g>
<g><path style="opacity:0.982" fill="#fefffe" d="M 628.5,175.5 C 629.497,175.47 630.164,175.97 630.5,177C 632.285,181.53 633.952,186.03 635.5,190.5C 619.941,191.358 604.608,190.024 589.5,186.5C 589.357,184.738 589.691,183.071 590.5,181.5C 598.479,180.668 606.479,180.168 614.5,180C 619.577,179.405 624.244,177.905 628.5,175.5 Z"/></g>
<g><path style="opacity:0.97" fill="#fefffe" d="M 593.5,199.5 C 593.917,198.876 594.584,198.543 595.5,198.5C 603.419,200.973 611.419,203.14 619.5,205C 627.167,205.333 634.833,205.667 642.5,206C 646.938,212.275 651.938,218.108 657.5,223.5C 637.341,223.395 618.674,217.895 601.5,207C 598.308,204.972 595.641,202.472 593.5,199.5 Z"/></g>
</svg>
