<svg width="45" height="41" viewBox="0 0 45 41" fill="none" xmlns="http://www.w3.org/2000/svg">
<path d="M33.7504 12.2316C33.6379 12.2145 33.5066 12.2145 33.3941 12.2316C30.8066 12.1462 28.7441 10.2158 28.7441 7.82413C28.7441 5.38121 30.9004 3.41663 33.5816 3.41663C36.2629 3.41663 38.4191 5.3983 38.4191 7.82413C38.4004 10.2158 36.3379 12.1462 33.7504 12.2316Z" stroke="#BBD8EB" stroke-width="1.5" stroke-linecap="round" stroke-linejoin="round"/>
<path d="M31.819 24.6683C34.3877 25.0612 37.219 24.6512 39.2065 23.4383C41.8502 21.8325 41.8502 19.2017 39.2065 17.5958C37.2002 16.3829 34.3314 15.9729 31.7627 16.3829" stroke="#BBD8EB" stroke-width="1.5" stroke-linecap="round" stroke-linejoin="round"/>
<path d="M11.1941 12.2316C11.3066 12.2145 11.4379 12.2145 11.5504 12.2316C14.1379 12.1462 16.2004 10.2158 16.2004 7.82413C16.2004 5.38121 14.0441 3.41663 11.3629 3.41663C8.68164 3.41663 6.52539 5.3983 6.52539 7.82413C6.54414 10.2158 8.60664 12.1462 11.1941 12.2316Z" stroke="#BBD8EB" stroke-width="1.5" stroke-linecap="round" stroke-linejoin="round"/>
<path d="M13.1252 24.6683C10.5564 25.0612 7.7252 24.6512 5.7377 23.4383C3.09395 21.8325 3.09395 19.2017 5.7377 17.5958C7.74395 16.3829 10.6127 15.9729 13.1814 16.3829" stroke="#BBD8EB" stroke-width="1.5" stroke-linecap="round" stroke-linejoin="round"/>
<path d="M22.4994 24.993C22.3869 24.9759 22.2557 24.9759 22.1432 24.993C19.5557 24.9076 17.4932 22.9771 17.4932 20.5855C17.4932 18.1426 19.6494 16.178 22.3307 16.178C25.0119 16.178 27.1682 18.1596 27.1682 20.5855C27.1494 22.9771 25.0869 24.9247 22.4994 24.993Z" stroke="#BBD8EB" stroke-width="1.5" stroke-linecap="round" stroke-linejoin="round"/>
<path d="M27.9559 30.3742C24.9746 28.5634 20.0434 28.5634 17.0434 30.3742C14.3996 31.9801 14.3996 34.6109 17.0434 36.2167C20.0434 38.0447 24.9559 38.0447 27.9559 36.2167" stroke="#BBD8EB" stroke-width="1.5" stroke-linecap="round" stroke-linejoin="round"/>
</svg>
