<svg width="75" height="75" viewBox="0 0 75 75" fill="none" xmlns="http://www.w3.org/2000/svg">
<rect width="75" height="75" rx="20" fill="#73A5D3"/>
<path d="M46.4313 17.7766H41.4122C35.2349 17.7766 31.374 21.5533 31.374 27.5959V35.2437H43.4391C44.2306 35.2437 44.8869 35.8857 44.8869 36.6599C44.8869 37.4342 44.2306 38.0762 43.4391 38.0762H31.374V45.7239C31.374 51.7666 35.2349 55.5433 41.4122 55.5433H46.412C52.5893 55.5433 56.4501 51.7666 56.4501 45.7239V27.5959C56.4694 21.5533 52.6086 17.7766 46.4313 17.7766Z" fill="#0D1134"/>
<path d="M22.8033 35.2437L26.7992 31.3348C27.0888 31.0516 27.2239 30.6928 27.2239 30.334C27.2239 29.9752 27.0888 29.5976 26.7992 29.3332C26.2394 28.7856 25.3128 28.7856 24.753 29.3332L18.2861 35.6591C17.7263 36.2067 17.7263 37.1131 18.2861 37.6607L24.753 43.9867C25.3128 44.5343 26.2394 44.5343 26.7992 43.9867C27.359 43.439 27.359 42.5326 26.7992 41.985L22.8033 38.0762H31.3743V35.2437H22.8033Z" fill="#0D1134"/>
</svg>
